<svg xmlns="http://www.w3.org/2000/svg" viewBox="0 0 10413.67 1951.68"><defs><style>.cls-1,.cls-2{fill:#153989;}.cls-2{stroke:#153989;stroke-miterlimit:10;stroke-width:60.02px;}</style></defs><g id="_6" data-name="6"><path class="cls-1" d="M9427,1836.72c6.81,102.55,101.28,177.3,202.44,159.09,482.87-86.91,820.18-465.45,820.18-959.87,0-564.73-440.82-978.52-1035.59-978.52-472.08,0-844.62,260-980.14,646.45-52.39,149.4,65.38,303.67,223.24,291.56h0c91.13-7,167-70.36,193.37-157.86,75-248.47,292.17-407.29,563.53-407.29,337.93,0,592.14,246.32,592.14,605.66,0,314.21-194,541.62-468.28,594.12-71.08,13.6-119.27,80.57-114.47,152.78Z" transform="translate(-35.93 -57.33)"/></g><g id="_5" data-name="5"><path class="cls-1" d="M6245.52,1031.67c0-567.91,436-974.34,1022.79-974.34,237.37,0,446.14,62.92,610.68,180.41,96.48,68.88,102.35,210.68,15.24,291.1l-2.79,2.57c-67.88,62.67-169.38,65-244.18,10.75-103.39-74.93-222.85-113.37-357.42-113.37-352.62,0-602.92,247.6-602.92,602.88s250.3,602.93,602.92,602.93c134.58,0,254.05-38.47,357.44-114.4,74.83-55,176.93-53,245.16,10l2.74,2.53c86.89,80.2,81.21,221.39-14.6,290.69-164.93,119.3-374.83,182.63-615,182.63C6681.55,2006,6245.52,1599.59,6245.52,1031.67Z" transform="translate(-35.93 -57.33)"/></g><g id="_4" data-name="4"><path class="cls-1" d="M5642.47,122.75c-39-38.65-91.95-63.39-150.58-65.31-126.66-4.15-230.38,107.48-230.38,234.21V820.09c0,141.56-177.57,205-267.22,95.4L4585.55,416c-64.58-78.92-185.79-77.23-248.15,3.46L3954.52,914.93a174.7,174.7,0,0,0-36.47,106.83V1786a222.36,222.36,0,0,0,65.44,157.57c43.6,44,105.39,69.45,173.05,64.91,118.74-8,207.52-113.58,207.52-232.58v-895c0-19.15,24-27.75,36.17-12.94l861.28,1048.91c23.61,29,53.81,51.88,86.72,67.75,77,36.73,172.71,34.07,253.59-22.31,68.74-47.92,105.7-129.86,105.7-213.67V280.32A222,222,0,0,0,5642.47,122.75Z" transform="translate(-35.93 -57.33)"/></g><g id="_3" data-name="3"><path class="cls-1" d="M3031.53,57.39h0c124.71,0,225.81,101.1,225.81,225.81V1783c0,124.71-101.1,225.81-225.81,225.81h0c-124.72,0-225.82-101.1-225.82-225.81V283.2C2805.71,158.49,2906.81,57.39,3031.53,57.39Z" transform="translate(-35.93 -57.33)"/></g><g id="_2" data-name="2"><path class="cls-2" d="M1877.79,1173.61l-287.07,391.44c-75.25,102.62-219,125.75-322.63,51.94h0c-88-62.65-107.75-185.18-43.9-272.31l123.82-169a246.33,246.33,0,0,0,6-282.55l-260.8-389.83a176.12,176.12,0,0,1,36.58-235.62l41.83-33.36c89.36-71.26,220.55-50.88,284.08,44.14l417,623.72a203.76,203.76,0,0,1,27.1,57.3c0,.39.39.77.39,1.55A213.13,213.13,0,0,1,1877.79,1173.61Z" transform="translate(-35.93 -57.33)"/></g><g id="_1" data-name="1"><path class="cls-2" d="M880.22,871.18,593.15,479.73C517.9,377.12,374.18,354,270.52,427.79h0c-88,62.66-107.75,185.18-43.9,272.32l123.82,169a246.33,246.33,0,0,1,6,282.55L95.68,1541.46a176.11,176.11,0,0,0,36.58,235.61l41.83,33.37c89.36,71.26,220.55,50.87,284.08-44.14l417-623.72a203.89,203.89,0,0,0,27.1-57.3c0-.39.39-.78.39-1.55A213.13,213.13,0,0,0,880.22,871.18Z" transform="translate(-35.93 -57.33)"/></g></svg>